<?xml version="1.0" standalone="no"?>
<!DOCTYPE svg PUBLIC "-//W3C//DTD SVG 20010904//EN"
 "http://www.w3.org/TR/2001/REC-SVG-20010904/DTD/svg10.dtd">
<svg version="1.0" xmlns="http://www.w3.org/2000/svg"
 width="200.000000pt" height="200.000000pt" viewBox="0 0 200.000000 200.000000"
 preserveAspectRatio="xMidYMid meet">
<metadata>
Created by potrace 1.11, written by Peter Selinger 2001-2013
</metadata>
<g transform="translate(0.000000,200.000000) scale(0.100000,-0.100000)"
fill="#000000" stroke="none">
<path d="M282 1975 c-14 -18 -20 -41 -20 -77 -1 -43 3 -55 26 -77 23 -22 28
-36 30 -84 4 -79 33 -152 94 -233 53 -70 215 -236 332 -339 82 -73 109 -114
108 -165 -1 -58 -21 -86 -127 -184 -323 -297 -404 -411 -407 -569 0 -28 -8
-45 -29 -66 -24 -24 -28 -36 -27 -81 0 -42 5 -58 24 -76 l23 -24 689 0 c794 0
732 -8 739 93 3 52 1 60 -24 85 -23 23 -29 39 -34 100 -9 89 -40 155 -115 246
-49 60 -229 239 -337 337 -59 52 -79 90 -79 141 1 54 27 91 128 183 216 197
332 328 376 424 11 25 23 75 26 111 4 52 10 71 32 96 38 44 41 124 6 159 l-25
25 -695 0 -695 0 -19 -25z m1308 -229 c0 -60 -23 -120 -70 -182 -43 -57 -193
-210 -323 -328 -95 -86 -135 -150 -138 -216 -5 -103 25 -155 157 -275 214
-195 335 -333 362 -414 13 -38 16 -121 5 -121 -5 -1 -269 -1 -588 -1 l-580 -1
0 60 c0 32 7 72 15 88 42 82 154 205 364 399 68 63 105 105 123 143 54 110 23
214 -95 319 -131 118 -290 279 -340 345 -54 72 -72 117 -72 186 l0 42 590 0
590 0 0 -44z"/>
<path d="M750 1555 c-36 -8 -90 -23 -120 -33 l-54 -18 119 -115 c65 -63 146
-141 181 -175 90 -88 94 -101 95 -328 0 -105 0 -198 0 -207 -1 -19 -38 -63
-67 -77 -11 -6 -43 -14 -70 -17 -48 -7 -134 -42 -134 -56 0 -18 -76 -61 -132
-75 -54 -14 -67 -22 -87 -53 -30 -45 -51 -105 -51 -142 l0 -29 571 0 572 0 -5
43 c-6 51 -39 122 -74 160 -20 22 -32 27 -61 24 -44 -5 -128 10 -165 29 -15 8
-55 39 -89 69 -34 30 -67 55 -74 55 -6 0 -22 12 -36 26 -23 25 -24 27 -24 247
0 258 2 264 93 348 186 170 223 209 200 210 -86 4 -197 38 -303 92 -49 25 -74
31 -140 33 -46 2 -108 -3 -145 -11z"/>
</g>
</svg>
